<svg xmlns="http://www.w3.org/2000/svg" viewBox="0 0 469.76 104.2"><defs><style>.cls-1,.cls-2{fill:#e94d11;}.cls-2{fill-rule:evenodd;}</style></defs><title>aliyunlogo_1</title><g id="图层_2" data-name="图层 2"><g id="图层_1-2" data-name="图层 1"><rect class="cls-1" x="391.01" y="6.73" width="74.84" height="10.69"/><polygon class="cls-2" points="420.88 54.96 469.76 54.96 469.76 44.27 387.06 44.27 387.06 54.96 408.11 54.96 391.63 90.73 391.39 90.73 391.39 101.42 465.48 101.42 465.48 90.73 465.35 90.73 457.79 72.53 445.27 72.53 452.83 90.73 404.4 90.73 420.88 54.96"/><path class="cls-2" d="M339.75,91V80.64h31.93V70H339.75V60.56h31.93V6.73H296.84V60.56h32.27V70H296.84V80.64h32.27V91h-36.5v10.69h83.31V91Zm21.3-41.16h-21.3V37.65h21.3Zm0-22.9h-21.3V17.42h21.3Zm-53.58-9.55h21.64V27H307.47Zm0,32.45V37.65h21.64V49.87Z"/><path class="cls-2" d="M261.21,81.29h.09V31.17h0V26.72H232.73V81.29h28.48ZM243.37,70.6V37.41h7.29V70.6Z"/><path class="cls-2" d="M281.74,17.42V6.73H230.9V17.42h37.3V85.05c-.24,3.56-1,6-5.77,6.3H250.65V102h11.12c7.2.31,17.51-.32,17.06-17V17.42Z"/><path class="cls-2" d="M227.56,80.71c0-.78,0-1.59,0-2.46V44.13h-5.9L226.37,6.8H195.71v94.5h10.64V17.5h8l-4.91,39h7.45V78.08c-.15,2.19-.7,4.4-3.65,4.59l-3.18.16.09,10.51H217c5.82,0,10.18-2,10.51-12.43h0Z"/><path class="cls-2" d="M27,0H64.58L57.05,11.94,30.14,20.08c-4.32,1.31-8.22,3.69-8.2,8.2l.22,47.09c0,4.51,3.83,7.08,8.2,8.2L56,90.16l8.85,14H27c-14.86,0-27-11.82-27-26.26V26.26C0,11.82,12.17,0,27,0Z"/><path class="cls-2" d="M141.15,0H103.61l7.53,11.94,26.91,8.14c4.32,1.31,8.22,3.69,8.2,8.2L146,75.37c0,4.51-3.84,7.08-8.2,8.2l-25.67,6.59-8.85,14h37.84c14.87,0,27-11.82,27-26.26V26.26C168.19,11.82,156,0,141.15,0Z"/><rect class="cls-1" x="56.49" y="45.67" width="56.31" height="12.42"/></g></g></svg>